{
  "accessors": [
    {
      "bufferView": 2,
      "componentType": 5126,
      "count": 247,
      "max": [
        9.347475051879883,
        9.3474760055542,
        15.0
      ],
      "min": [
        -9.347476959228516,
        -9.3474760055542,
        3.144047498703003
      ],
      "type": "VEC3"
    },
    {
      "bufferView": 2,
      "byteOffset": 2964,
      "componentType": 5126,
      "count": 247,
      "max": [
        0.9701424837112427,
        0.9922639727592468,
        0.9817159175872803
      ],
      "min": [
        -0.9701424837112427,
        -0.9451618194580078,
        -1.0
      ],
      "type": "VEC3"
    },
    {
      "bufferView": 1,
      "componentType": 5126,
      "count": 247,
      "max": [
        53.22812271118164,
        15.000003814697266
      ],
      "min": [
        -24.069103240966797,
        -0.7768891453742981
      ],
      "type": "VEC2"
    },
    {
      "bufferView": 0,
      "componentType": 5125,
      "count": 363,
      "type": "SCALAR"
    },
    {
      "bufferView": 3,
      "componentType": 5126,
      "count": 900,
      "max": [
        29.999990463256836
      ],
      "min": [
        0.04165666550397873
      ],
      "type": "SCALAR"
    },
    {
      "bufferView": 4,
      "componentType": 5126,
      "count": 900,
      "max": [
        1.5481928586959839,
        38.099998474121094,
        5.083552837371826
      ],
      "min": [
        -9.164847373962402,
        35.80228805541992,
        -13.030966758728027
      ],
      "type": "VEC3"
    },
    {
      "bufferView": 3,
      "byteOffset": 3600,
      "componentType": 5126,
      "count": 2,
      "max": [
        30.0
      ],
      "min": [
        0.04165666550397873
      ],
      "type": "SCALAR"
    },
    {
      "bufferView": 4,
      "byteOffset": 10800,
      "componentType": 5126,
      "count": 2,
      "max": [
        2.5399999618530273,
        2.5399999618530273,
        2.5399999618530273
      ],
      "min": [
        2.5399999618530273,
        2.5399999618530273,
        2.5399999618530273
      ],
      "type": "VEC3"
    },
    {
      "bufferView": 3,
      "byteOffset": 3608,
      "componentType": 5126,
      "count": 900,
      "max": [
        29.999990463256836
      ],
      "min": [
        0.04165666550397873
      ],
      "type": "SCALAR"
    },
    {
      "bufferView": 5,
      "componentType": 5126,
      "count": 900,
      "max": [
        0.7482743859291077,
        0.7477781772613525,
        0.8191520571708679,
        0.6675125360488892
      ],
      "min": [
        -7.637632393198146e-08,
        -0.5767670273780823,
        -0.6662542819976807,
        -8.84101112319513e-08
      ],
      "type": "VEC4"
    },
    {
      "bufferView": 3,
      "byteOffset": 7208,
      "componentType": 5126,
      "count": 1,
      "max": [
        0.0
      ],
      "min": [
        0.0
      ],
      "type": "SCALAR"
    },
    {
      "bufferView": 5,
      "byteOffset": 14400,
      "componentType": 5126,
      "count": 1,
      "max": [
        -0.03372540324926376,
        0.9294371604919434,
        0.35677748918533325,
        0.0878576785326004
      ],
      "min": [
        -0.03372540324926376,
        0.9294371604919434,
        0.35677748918533325,
        0.0878576785326004
      ],
      "type": "VEC4"
    },
    {
      "bufferView": 3,
      "byteOffset": 7212,
      "componentType": 5126,
      "count": 2,
      "max": [
        30.0
      ],
      "min": [
        0.04165666550397873
      ],
      "type": "SCALAR"
    },
    {
      "bufferView": 4,
      "byteOffset": 10824,
      "componentType": 5126,
      "count": 2,
      "max": [
        0.0,
        0.0,
        0.0
      ],
      "min": [
        0.0,
        0.0,
        0.0
      ],
      "type": "VEC3"
    },
    {
      "bufferView": 3,
      "byteOffset": 7220,
      "componentType": 5126,
      "count": 2,
      "max": [
        30.0
      ],
      "min": [
        0.04165666550397873
      ],
      "type": "SCALAR"
    },
    {
      "bufferView": 4,
      "byteOffset": 10848,
      "componentType": 5126,
      "count": 2,
      "max": [
        1.0,
        1.0,
        1.0
      ],
      "min": [
        1.0,
        1.0,
        1.0
      ],
      "type": "VEC3"
    },
    {
      "bufferView": 3,
      "byteOffset": 7228,
      "componentType": 5126,
      "count": 900,
      "max": [
        30.0
      ],
      "min": [
        0.04165666550397873
      ],
      "type": "SCALAR"
    },
    {
      "bufferView": 5,
      "byteOffset": 14416,
      "componentType": 5126,
      "count": 900,
      "max": [
        0.0,
        0.0,
        0.0,
        1.0
      ],
      "min": [
        0.0,
        -0.5585709810256958,
        0.0,
        0.8294567465782166
      ],
      "type": "VEC4"
    }
  ],
  "animations": [
    {
      "channels": [
        {
          "sampler": 0,
          "target": {
            "node": 8,
            "path": "translation"
          }
        },
        {
          "sampler": 1,
          "target": {
            "node": 8,
            "path": "scale"
          }
        },
        {
          "sampler": 2,
          "target": {
            "node": 8,
            "path": "rotation"
          }
        },
        {
          "sampler": 3,
          "target": {
            "node": 15,
            "path": "rotation"
          }
        },
        {
          "sampler": 4,
          "target": {
            "node": 10,
            "path": "translation"
          }
        },
        {
          "sampler": 5,
          "target": {
            "node": 10,
            "path": "scale"
          }
        },
        {
          "sampler": 6,
          "target": {
            "node": 10,
            "path": "rotation"
          }
        }
      ],
      "name": "Take 001",
      "samplers": [
        {
          "input": 4,
          "interpolation": "LINEAR",
          "output": 5
        },
        {
          "input": 6,
          "interpolation": "LINEAR",
          "output": 7
        },
        {
          "input": 8,
          "interpolation": "LINEAR",
          "output": 9
        },
        {
          "input": 10,
          "interpolation": "LINEAR",
          "output": 11
        },
        {
          "input": 12,
          "interpolation": "LINEAR",
          "output": 13
        },
        {
          "input": 14,
          "interpolation": "LINEAR",
          "output": 15
        },
        {
          "input": 16,
          "interpolation": "LINEAR",
          "output": 17
        }
      ]
    }
  ],
  "asset": {
    "extras": {
      "author": "idccollective (https://sketchfab.com/david.yanez.3d)",
      "license": "CC-BY-4.0 (http://creativecommons.org/licenses/by/4.0/)",
      "source": "https://sketchfab.com/3d-models/purple-diamond-crystal-gem-f37c7cb3a78e488089449092b82d9c15",
      "title": "Purple Diamond Crystal Gem"
    },
    "generator": "Sketchfab-12.66.0",
    "version": "2.0"
  },
  "bufferViews": [
    {
      "buffer": 0,
      "byteLength": 1452,
      "name": "floatBufferViews",
      "target": 34963
    },
    {
      "buffer": 0,
      "byteLength": 1976,
      "byteOffset": 1452,
      "byteStride": 8,
      "name": "floatBufferViews",
      "target": 34962
    },
    {
      "buffer": 0,
      "byteLength": 5928,
      "byteOffset": 3428,
      "byteStride": 12,
      "name": "floatBufferViews",
      "target": 34962
    },
    {
      "buffer": 0,
      "byteLength": 10828,
      "byteOffset": 9356,
      "name": "floatBufferViews"
    },
    {
      "buffer": 0,
      "byteLength": 10872,
      "byteOffset": 20184,
      "byteStride": 12,
      "name": "floatBufferViews"
    },
    {
      "buffer": 0,
      "byteLength": 28816,
      "byteOffset": 31056,
      "byteStride": 16,
      "name": "floatBufferViews"
    }
  ],
  "buffers": [
    {
      "byteLength": 59872,
      "uri": "purple-diamond.bin"
    }
  ],
  "materials": [
    {
      "alphaMode": "BLEND",
      "doubleSided": true,
      "name": "Crystal",
      "pbrMetallicRoughness": {
        "baseColorFactor": [
          0.5588885545730591,
          0.2711979150772095,
          1.0,
          0.36
        ],
        "metallicFactor": 0.72,
        "roughnessFactor": 0.6
      }
    }
  ],
  "meshes": [
    {
      "name": "Diamond_Crystal_0",
      "primitives": [
        {
          "attributes": {
            "NORMAL": 1,
            "POSITION": 0,
            "TEXCOORD_0": 2
          },
          "indices": 3,
          "material": 0,
          "mode": 4
        }
      ]
    }
  ],
  "nodes": [
    {
      "children": [
        1
      ],
      "matrix": [
        1.0,
        0.0,
        0.0,
        0.0,
        0.0,
        2.220446049250313e-16,
        -1.0,
        0.0,
        0.0,
        1.0,
        2.220446049250313e-16,
        0.0,
        0.0,
        0.0,
        0.0,
        1.0
      ],
      "name": "Sketchfab_model"
    },
    {
      "children": [
        2
      ],
      "matrix": [
        1.0,
        0.0,
        0.0,
        0.0,
        0.0,
        0.0,
        1.0,
        0.0,
        0.0,
        -1.0,
        0.0,
        0.0,
        0.0,
        0.0,
        0.0,
        1.0
      ],
      "name": "5a43a134a3fb4f44af38bb586ccd45e7.fbx"
    },
    {
      "children": [
        3
      ],
      "name": "Object_2"
    },
    {
      "children": [
        4,
        6,
        8,
        10,
        17,
        18
      ],
      "name": "RootNode"
    },
    {
      "children": [
        5
      ],
      "name": "back",
      "rotation": [
        -0.0,
        -0.7071068286895752,
        0.0,
        0.7071068286895752
      ],
      "translation": [
        -0.1061457023024559,
        3.895738124847412,
        -100.0999984741211
      ]
    },
    {
      "name": "Object_5"
    },
    {
      "children": [
        7
      ],
      "name": "left",
      "rotation": [
        0.0,
        1.1102230246251565e-16,
        0.0,
        1.0
      ],
      "translation": [
        -100.11637115478516,
        1.8218927383422852,
        -0.16039453446865082
      ]
    },
    {
      "name": "Object_7"
    },
    {
      "children": [
        9
      ],
      "name": "Diamond",
      "rotation": [
        -4.3303817420792257e-08,
        -0.5735764503479004,
        0.8191520571708679,
        6.184426126765175e-08
      ],
      "scale": [
        2.5399999618530273,
        2.5399999618530273,
        2.5399999618530273
      ],
      "translation": [
        -3.469447165116435e-07,
        35.80228805541992,
        -13.030966758728027
      ]
    },
    {
      "mesh": 0,
      "name": "Diamond_Crystal_0"
    },
    {
      "children": [
        11,
        14,
        15,
        16
      ],
      "name": "LIghts",
      "rotation": [
        0.0,
        -0.5585709810256958,
        0.0,
        0.8294568657875061
      ]
    },
    {
      "children": [
        12
      ],
      "name": "spotLight1",
      "rotation": [
        0.16234782338142395,
        0.7848624587059021,
        -0.5516105890274048,
        0.23099757730960846
      ],
      "translation": [
        229.89801025390625,
        152.79144287109375,
        -361.73187255859375
      ]
    },
    {
      "children": [
        13
      ],
      "matrix": [
        1.0,
        0.0,
        0.0,
        0.0,
        0.0,
        2.220446049250313e-16,
        1.0,
        0.0,
        0.0,
        -1.0,
        2.220446049250313e-16,
        0.0,
        0.0,
        0.0,
        0.0,
        1.0
      ],
      "name": "Object_12"
    },
    {
      "name": "Object_13"
    },
    {
      "name": "spotLight2",
      "rotation": [
        -0.2328767031431198,
        -0.06782909482717514,
        -0.01628432609140873,
        0.9700012803077698
      ],
      "translation": [
        -79.08177185058594,
        289.5256042480469,
        557.696044921875
      ]
    },
    {
      "name": "spotLight3",
      "rotation": [
        -0.03372540324926376,
        0.9294371604919434,
        0.35677748918533325,
        0.0878576785326004
      ],
      "translation": [
        125.55816650390625,
        603.3316650390625,
        -663.198974609375
      ]
    },
    {
      "name": "spotLight4",
      "rotation": [
        -0.08465805649757385,
        0.9146703481674194,
        -0.26055070757865906,
        -0.2971944212913513
      ],
      "translation": [
        -318.5832824707031,
        -336.0581359863281,
        -443.4922790527344
      ]
    },
    {
      "name": "mentalrayIbl1",
      "scale": [
        33055.25,
        33055.25,
        33055.25
      ]
    },
    {
      "children": [
        19
      ],
      "name": "pointLight1",
      "translation": [
        0.0,
        18.387170791625977,
        0.0
      ]
    },
    {
      "children": [
        20
      ],
      "matrix": [
        1.0,
        0.0,
        0.0,
        0.0,
        0.0,
        2.220446049250313e-16,
        1.0,
        0.0,
        0.0,
        -1.0,
        2.220446049250313e-16,
        0.0,
        0.0,
        0.0,
        0.0,
        1.0
      ],
      "name": "Object_19"
    },
    {
      "name": "Object_20"
    }
  ],
  "scene": 0,
  "scenes": [
    {
      "name": "Sketchfab_Scene",
      "nodes": [
        0
      ]
    }
  ]
}
